# xmcd CD database file
#
# Track frame offsets:
#	150
#	21468
#	52263
#	68955
#	97207
#	113665
#	130945
#	154289
#	176602
#
# Disc length: 2729 seconds
#
# Revision: 0
# Processed by: cddbd v1.5.2PL0 Copyright (c) Steve Scherf et al.
# Submitted via: CDex 1.51
#
DISCID=850aa709
DTITLE=Mississippi MacDonald - Dress For The Money
DYEAR=2016
DGENRE=Blues
TTITLE0=Dress For The Money
TTITLE1=Too Much, Too Little, Not Enough
TTITLE2=Big Man, Red Suit
TTITLE3=Aint't Nobody's Business
TTITLE4=Blacksnake Brown
TTITLE5=Even If It Makes Me Poor
TTITLE6=This Old City
TTITLE7=When It All Comes Down
TTITLE8=Ain't Nobody's Business (Remix)
EXTD=YEAR: 2016
EXTT0=
EXTT1=
EXTT2=
EXTT3=
EXTT4=
EXTT5=
EXTT6=
EXTT7=
EXTT8=
PLAYORDER=
